<svg width="178" height="61" viewBox="0 0 178 61" fill="none" xmlns="http://www.w3.org/2000/svg">
<path d="M85.7667 12.0483C85.7667 13.338 85.5251 14.4426 85.042 15.3622C84.5627 16.2779 83.9081 16.9792 83.0782 17.4663C82.2521 17.9533 81.3151 18.1969 80.2669 18.1969C79.2188 18.1969 78.2797 17.9533 77.4498 17.4663C76.6238 16.9753 75.9692 16.272 75.486 15.3564C75.0067 14.4368 74.7671 13.3341 74.7671 12.0483C74.7671 10.7586 75.0067 9.65589 75.486 8.74023C75.9692 7.82067 76.6238 7.11736 77.4498 6.63031C78.2797 6.14326 79.2188 5.89973 80.2669 5.89973C81.3151 5.89973 82.2521 6.14326 83.0782 6.63031C83.9081 7.11736 84.5627 7.82067 85.042 8.74023C85.5251 9.65589 85.7667 10.7586 85.7667 12.0483ZM83.5867 12.0483C83.5867 11.1404 83.4444 10.3748 83.16 9.75135C82.8795 9.12402 82.4898 8.65061 81.9911 8.3311C81.4923 8.0077 80.9176 7.846 80.2669 7.846C79.6162 7.846 79.0415 8.0077 78.5427 8.3311C78.044 8.65061 77.6524 9.12402 77.368 9.75135C77.0874 10.3748 76.9472 11.1404 76.9472 12.0483C76.9472 12.9562 77.0874 13.7238 77.368 14.3511C77.6524 14.9745 78.044 15.4479 78.5427 15.7713C79.0415 16.0908 79.6162 16.2506 80.2669 16.2506C80.9176 16.2506 81.4923 16.0908 81.9911 15.7713C82.4898 15.4479 82.8795 14.9745 83.16 14.3511C83.4444 13.7238 83.5867 12.9562 83.5867 12.0483ZM86.8292 18.0332V6.06338H88.9976V11.5632H89.1437L93.8136 6.06338H96.4612L91.8322 11.4346L96.5021 18.0332H93.8954L90.3243 12.9016L88.9976 14.468V18.0332H86.8292ZM96.9801 18.0332V6.06338H101.562C102.427 6.06338 103.146 6.19976 103.719 6.47251C104.296 6.74136 104.726 7.10957 105.011 7.57714C105.299 8.04471 105.443 8.57463 105.443 9.16688C105.443 9.65394 105.35 10.0709 105.163 10.4176C104.976 10.7605 104.724 11.0391 104.409 11.2534C104.093 11.4677 103.74 11.6216 103.351 11.7151V11.832C103.775 11.8554 104.183 11.9859 104.572 12.2236C104.966 12.4574 105.287 12.7886 105.537 13.2172C105.786 13.6458 105.911 14.1641 105.911 14.7719C105.911 15.3914 105.761 15.9486 105.461 16.4435C105.161 16.9344 104.709 17.3221 104.105 17.6065C103.501 17.891 102.741 18.0332 101.825 18.0332H96.9801ZM99.1485 16.2214H101.481C102.268 16.2214 102.835 16.0714 103.181 15.7713C103.532 15.4674 103.707 15.0778 103.707 14.6024C103.707 14.2478 103.62 13.9283 103.444 13.6439C103.269 13.3555 103.02 13.1296 102.696 12.9659C102.373 12.7984 101.987 12.7146 101.539 12.7146H99.1485V16.2214ZM99.1485 11.1541H101.293C101.668 11.1541 102.005 11.0859 102.305 10.9495C102.605 10.8092 102.84 10.6125 103.012 10.3592C103.187 10.102 103.275 9.79811 103.275 9.44743C103.275 8.98375 103.111 8.6019 102.784 8.30188C102.46 8.00185 101.979 7.85184 101.34 7.85184H99.1485V11.1541ZM76.7894 21.0634V33.0332H75.3399V21.0634H76.7894ZM88.1998 21.0634V33.0332H86.7971L80.2745 23.635H80.1576V33.0332H78.7081V21.0634H80.1108L86.6568 30.4849H86.7737V21.0634H88.1998ZM89.4581 22.3492V21.0634H98.4354V22.3492H94.6715V33.0332H93.222V22.3492H89.4581ZM99.685 33.0332V21.0634H106.909V22.3492H101.134V26.3937H106.535V27.6795H101.134V31.7474H107.002V33.0332H99.685ZM108.534 33.0332V21.0634H112.578C113.514 21.0634 114.281 21.2231 114.881 21.5426C115.481 21.8583 115.926 22.2927 116.214 22.846C116.502 23.3993 116.646 24.0286 116.646 24.7338C116.646 25.4391 116.502 26.0644 116.214 26.6099C115.926 27.1554 115.483 27.5841 114.887 27.8958C114.291 28.2036 113.529 28.3575 112.602 28.3575H109.329V27.0483H112.555C113.194 27.0483 113.708 26.9548 114.098 26.7677C114.492 26.5807 114.776 26.3158 114.951 25.9729C115.131 25.6261 115.22 25.2131 115.22 24.7338C115.22 24.2546 115.131 23.8357 114.951 23.4772C114.772 23.1187 114.486 22.8421 114.092 22.6473C113.699 22.4486 113.179 22.3492 112.532 22.3492H109.983V33.0332H108.534ZM114.168 27.6561L117.114 33.0332H115.431L112.532 27.6561H114.168ZM118.565 33.0332H117.045L121.441 21.0634H122.937L127.332 33.0332H125.812L122.236 22.957H122.142L118.565 33.0332ZM119.126 28.3575H125.251V29.6433H119.126V28.3575ZM137.278 24.804H135.829C135.743 24.387 135.593 24.0208 135.379 23.7052C135.168 23.3895 134.911 23.1246 134.607 22.9103C134.307 22.6921 133.974 22.5284 133.608 22.4193C133.242 22.3102 132.86 22.2557 132.462 22.2557C131.738 22.2557 131.081 22.4388 130.493 22.8051C129.908 23.1713 129.443 23.711 129.096 24.424C128.753 25.1371 128.582 26.0118 128.582 27.0483C128.582 28.0847 128.753 28.9595 129.096 29.6725C129.443 30.3856 129.908 30.9252 130.493 31.2915C131.081 31.6578 131.738 31.8409 132.462 31.8409C132.86 31.8409 133.242 31.7863 133.608 31.6772C133.974 31.5681 134.307 31.4064 134.607 31.1921C134.911 30.9739 135.168 30.707 135.379 30.3914C135.593 30.0719 135.743 29.7057 135.829 29.2926H137.278C137.169 29.9044 136.971 30.4518 136.682 30.935C136.394 31.4181 136.035 31.8292 135.607 32.1682C135.178 32.5033 134.697 32.7585 134.163 32.9338C133.633 33.1092 133.066 33.1969 132.462 33.1969C131.442 33.1969 130.534 32.9475 129.739 32.4487C128.944 31.95 128.319 31.2408 127.863 30.3213C127.407 29.4017 127.179 28.3107 127.179 27.0483C127.179 25.7858 127.407 24.6949 127.863 23.7753C128.319 22.8557 128.944 22.1466 129.739 21.6478C130.534 21.1491 131.442 20.8997 132.462 20.8997C133.066 20.8997 133.633 20.9874 134.163 21.1627C134.697 21.3381 135.178 21.5952 135.607 21.9342C136.035 22.2693 136.394 22.6784 136.682 23.1616C136.971 23.6409 137.169 24.1883 137.278 24.804ZM137.979 22.3492V21.0634H146.956V22.3492H143.192V33.0332H141.742V22.3492H137.979ZM149.655 21.0634V33.0332H148.205V21.0634H149.655ZM152.065 21.0634L155.618 31.1395H155.758L159.312 21.0634H160.832L156.436 33.0332H154.94L150.545 21.0634H152.065ZM161.708 33.0332V21.0634H168.932V22.3492H163.158V26.3937H168.558V27.6795H163.158V31.7474H169.026V33.0332H161.708ZM81.8859 39.0558C81.8157 38.4636 81.5313 38.0038 81.0326 37.6765C80.5338 37.3492 79.9221 37.1856 79.1973 37.1856C78.6674 37.1856 78.2038 37.2713 77.8063 37.4427C77.4128 37.6142 77.105 37.8499 76.8829 38.1499C76.6647 38.4499 76.5556 38.7909 76.5556 39.1727C76.5556 39.4922 76.6315 39.7669 76.7835 39.9968C76.9394 40.2228 77.1381 40.4118 77.3797 40.5638C77.6212 40.7118 77.8745 40.8346 78.1395 40.932C78.4044 41.0255 78.6479 41.1015 78.87 41.1599L80.0857 41.4872C80.3974 41.569 80.7442 41.682 81.1261 41.8262C81.5118 41.9704 81.88 42.1671 82.2307 42.4165C82.5853 42.662 82.8775 42.9776 83.1074 43.3633C83.3373 43.7491 83.4522 44.2225 83.4522 44.7836C83.4522 45.4304 83.2827 46.0149 82.9438 46.537C82.6087 47.0591 82.1177 47.4741 81.4709 47.7819C80.828 48.0897 80.0468 48.2436 79.1272 48.2436C78.27 48.2436 77.5277 48.1053 76.9004 47.8286C76.277 47.552 75.786 47.1662 75.4276 46.6714C75.073 46.1766 74.8723 45.6018 74.8256 44.9472H76.3218C76.3607 45.3992 76.5127 45.7733 76.7777 46.0694C77.0465 46.3616 77.3855 46.5798 77.7946 46.724C78.2077 46.8643 78.6518 46.9344 79.1272 46.9344C79.6805 46.9344 80.1773 46.8448 80.6176 46.6656C81.0579 46.4824 81.4066 46.2292 81.6638 45.9058C81.9209 45.5785 82.0495 45.1966 82.0495 44.7602C82.0495 44.3628 81.9385 44.0394 81.7164 43.79C81.4943 43.5406 81.2021 43.338 80.8397 43.1822C80.4773 43.0263 80.0857 42.8899 79.6649 42.773L78.1921 42.3522C77.2569 42.0834 76.5166 41.6996 75.9711 41.2008C75.4256 40.7021 75.1529 40.0494 75.1529 39.2429C75.1529 38.5727 75.334 37.9882 75.6964 37.4895C76.0627 36.9868 76.5536 36.5972 77.1693 36.3205C77.7888 36.04 78.4804 35.8997 79.2441 35.8997C80.0156 35.8997 80.7014 36.0381 81.3014 36.3147C81.9015 36.5874 82.3768 36.9615 82.7275 37.4369C83.0821 37.9122 83.2691 38.4519 83.2886 39.0558H81.8859ZM84.1933 37.3492V36.0634H93.1707V37.3492H89.4067V48.0332H87.9572V37.3492H84.1933ZM102.275 36.0634H103.725V43.9887C103.725 44.807 103.532 45.5375 103.146 46.1805C102.764 46.8195 102.225 47.3241 101.527 47.6942C100.83 48.0605 100.012 48.2436 99.0725 48.2436C98.1335 48.2436 97.3152 48.0605 96.6178 47.6942C95.9203 47.3241 95.3787 46.8195 94.993 46.1805C94.6111 45.5375 94.4202 44.807 94.4202 43.9887V36.0634H95.8696V43.8718C95.8696 44.4563 95.9982 44.9765 96.2554 45.4323C96.5126 45.8843 96.8788 46.2408 97.3542 46.5019C97.8334 46.7591 98.4062 46.8877 99.0725 46.8877C99.7388 46.8877 100.312 46.7591 100.791 46.5019C101.27 46.2408 101.636 45.8843 101.89 45.4323C102.147 44.9765 102.275 44.4563 102.275 43.8718V36.0634ZM109.326 48.0332H105.632V36.0634H109.489C110.65 36.0634 111.644 36.303 112.47 36.7823C113.296 37.2576 113.929 37.9415 114.37 38.8337C114.81 39.7221 115.03 40.7858 115.03 42.0249C115.03 43.2718 114.808 44.3452 114.364 45.2453C113.92 46.1415 113.273 46.8312 112.423 47.3143C111.574 47.7936 110.541 48.0332 109.326 48.0332ZM107.081 46.7474H109.232C110.222 46.7474 111.042 46.5565 111.693 46.1746C112.343 45.7928 112.829 45.2492 113.148 44.544C113.468 43.8387 113.627 42.999 113.627 42.0249C113.627 41.0586 113.47 40.2267 113.154 39.5293C112.838 38.8279 112.367 38.2902 111.74 37.9161C111.112 37.5382 110.331 37.3492 109.396 37.3492H107.081V46.7474ZM117.923 36.0634V48.0332H116.474V36.0634H117.923ZM129.942 42.0483C129.942 43.3107 129.714 44.4017 129.258 45.3213C128.802 46.2408 128.177 46.95 127.382 47.4487C126.587 47.9475 125.679 48.1969 124.658 48.1969C123.637 48.1969 122.729 47.9475 121.935 47.4487C121.14 46.95 120.514 46.2408 120.058 45.3213C119.603 44.4017 119.375 43.3107 119.375 42.0483C119.375 40.7858 119.603 39.6949 120.058 38.7753C120.514 37.8557 121.14 37.1466 121.935 36.6478C122.729 36.1491 123.637 35.8997 124.658 35.8997C125.679 35.8997 126.587 36.1491 127.382 36.6478C128.177 37.1466 128.802 37.8557 129.258 38.7753C129.714 39.6949 129.942 40.7858 129.942 42.0483ZM128.539 42.0483C128.539 41.0118 128.366 40.1371 128.019 39.424C127.676 38.711 127.21 38.1713 126.622 37.8051C126.037 37.4388 125.383 37.2557 124.658 37.2557C123.933 37.2557 123.277 37.4388 122.688 37.8051C122.104 38.1713 121.638 38.711 121.292 39.424C120.949 40.1371 120.777 41.0118 120.777 42.0483C120.777 43.0847 120.949 43.9595 121.292 44.6725C121.638 45.3856 122.104 45.9252 122.688 46.2915C123.277 46.6578 123.933 46.8409 124.658 46.8409C125.383 46.8409 126.037 46.6578 126.622 46.2915C127.21 45.9252 127.676 45.3856 128.019 44.6725C128.366 43.9595 128.539 43.0847 128.539 42.0483Z" fill="white"/>
<path fill-rule="evenodd" clip-rule="evenodd" d="M31.1262 56.0621C45.4164 56.0621 57.001 44.4775 57.001 30.1873C57.001 15.897 45.4164 4.31247 31.1262 4.31247C16.8359 4.31247 5.25139 15.897 5.25139 30.1873C5.25139 44.4775 16.8359 56.0621 31.1262 56.0621ZM31.1262 60.3745C47.7981 60.3745 61.3134 46.8592 61.3134 30.1873C61.3134 13.5153 47.7981 0 31.1262 0C14.4542 0 0.938919 13.5153 0.938919 30.1873C0.938919 46.8592 14.4542 60.3745 31.1262 60.3745Z" fill="white"/>
<path d="M48.3497 21.8133C47.0335 21.7352 45.7262 21.5455 44.442 21.2464C44.0138 21.0675 43.1297 20.5288 42.2891 20.5886C40.3525 20.735 40.0295 21.9693 37.6566 22.8826C37.2973 23.0199 36.9126 23.1649 36.5083 23.3099C36.6009 23.8829 36.7783 24.4391 37.0346 24.9599C36.639 24.5188 36.345 23.9962 36.1735 23.429C34.519 24.0373 32.784 24.3984 31.0242 24.5006C27.0897 24.669 23.0317 25.9799 18.0456 32.0558C17.3197 32.8416 16.4156 33.4415 15.4095 33.805C16.1774 35.3474 19.6904 37.428 26.4893 34.9647C25.7006 33.6599 25.3575 32.134 25.5119 30.6172C25.6233 32.1153 26.1578 33.5509 27.0533 34.757C29.3287 38.1686 33.689 40.1746 37.4633 40.1254C36.5594 39.5496 35.8194 38.7504 35.3147 37.805C36.3476 38.8576 38.1441 40.2928 39.8549 39.7919C39.8549 39.7919 39.8583 39.7886 39.8602 39.7886C39.0035 39.2671 38.2582 38.5817 37.6671 37.7715C37.9924 37.9849 40.0477 39.9182 41.3557 39.159C41.3777 39.1475 41.3978 39.1341 41.4141 39.126C40.7231 38.812 40.1145 38.3418 39.6363 37.7524C41.0749 38.8049 41.837 38.6614 42.3422 38.4499C34.2789 32.8386 34.8789 30.7311 34.7774 29.8723C34.7774 29.8723 34.788 29.8685 34.788 29.8656C34.7669 29.3365 34.7377 27.4329 35.2855 26.4531C35.12 28.4739 35.2855 29.048 35.3597 29.2054C36.6638 27.5616 36.4007 26.5315 38.4445 25.0604C39.3057 24.4427 42.2149 23.7653 42.2149 23.7653C44.0172 23.3826 45.0228 23.1768 45.5266 23.0477C46.1772 22.8927 47.6991 22.542 48.0373 22.4396C48.3756 22.3372 49.0382 21.8076 48.3497 21.8133Z" fill="white"/>
</svg>
