<svg width="86" height="61" viewBox="0 0 86 61" fill="none" xmlns="http://www.w3.org/2000/svg">
<path d="M39.8266 60.0315V50.7625L49.3244 45.4224C50.8883 44.5451 52.4522 43.2482 52.4522 41.1884C52.4522 39.6245 51.4224 37.641 48.3327 37.641C45.2049 37.641 44.0987 39.9678 44.1369 41.9513H39.3689C39.3689 36.1534 43.107 32.873 48.3327 32.873C54.5502 32.873 57.6017 36.8782 57.6017 41.1884C57.6017 44.5069 56.0378 46.9482 51.6512 49.3512L40.7802 55.2635H58.0213V60.0315H39.8266Z" fill="white"/>
<path d="M71.2229 60.3748C65.2725 60.3748 61.7632 56.6367 61.6488 52.0594H66.3787C66.6838 54.3481 68.2858 55.7975 71.2229 55.7975C74.5796 55.7975 75.6858 53.7378 75.6858 51.8687C75.6858 49.4657 73.626 48.2069 71.2229 48.2069H68.0951V43.6678L78.5847 37.908H62.7168V33.3308H79.5383V42.1039L75.4951 44.4307C78.8136 45.6513 80.8352 48.3595 80.8352 51.8687C80.8352 56.2934 76.9064 60.3748 71.2229 60.3748Z" fill="white"/>
<path d="M0.627304 9.87928C0.627304 3.89068 4.47984 0 10.2396 0C15.9993 0 19.8518 3.89068 19.8518 9.87928V17.6225C19.8518 23.6111 15.9993 27.5018 10.2396 27.5018C4.47984 27.5018 0.627304 23.6111 0.627304 17.6225V9.87928ZM5.50973 17.6225C5.50973 20.3307 6.57776 22.7338 10.2396 22.7338C13.9014 22.7338 14.9694 20.3307 14.9694 17.6225V9.87928C14.9694 7.17106 13.9014 4.76799 10.2396 4.76799C6.57776 4.76799 5.50973 7.17106 5.50973 9.87928V17.6225ZM7.87465 15.9823V11.2525H12.6045V15.9823H7.87465Z" fill="white"/>
<path d="M31.8868 27.5018C26.623 27.5018 23.0756 24.4121 23.0756 19.1864C23.0756 15.6771 24.5632 13.9225 26.1271 12.8545C25.0209 11.8246 23.9911 10.1463 23.9911 7.43806C23.9911 3.1278 27.2714 0 31.8868 0L34.5569 0C39.1723 0 42.4527 3.1278 42.4527 7.43806C42.4527 10.1463 41.4228 11.8246 40.3166 12.8545C41.8805 13.9225 43.3682 15.6771 43.3682 19.1864C43.3682 24.4121 39.8208 27.5018 34.5569 27.5018H31.8868ZM28.1106 19.1864C28.1106 21.9709 29.7126 22.9245 32.0776 22.9626H34.3662C36.7311 22.9245 38.3332 21.9709 38.3332 19.1864C38.3332 16.5926 36.7311 15.4101 34.3662 15.4101H32.0776C29.7126 15.4101 28.1106 16.5926 28.1106 19.1864ZM28.8735 7.59064C28.8735 9.68855 29.9796 10.871 32.0776 10.871H34.3662C36.4641 10.871 37.5703 9.68855 37.5703 7.59064C37.5703 5.79788 36.3497 4.53913 34.3662 4.53913H32.0776C30.0941 4.53913 28.8735 5.79788 28.8735 7.59064Z" fill="white"/>
<path d="M51.1091 14.0191L68.0695 29.0774L85.0741 14.0191V6.90814L80.1587 2.39062H72.852L68.0695 6.90814L63.2869 2.39062H55.9802L51.1091 6.90814V14.0191Z" fill="#D1FF71"/>
<path fill-rule="evenodd" clip-rule="evenodd" d="M64.4278 5.289L59.7591 0.771484H52.6264L47.8712 5.289V12.3999L64.4278 27.4583L81.0276 12.3999V5.289L76.2292 0.771484H69.0965L64.4278 5.289ZM70.7325 4.81494L64.4278 10.9155L58.1231 4.81494H54.2409L51.9147 7.02487V10.6118L64.4314 21.9958L76.9841 10.6086V7.0357L74.6253 4.81494H70.7325Z" fill="white"/>
<rect x="0.61171" y="55.25" width="31.9881" height="4.79822" fill="white"/>
</svg>
