<svg width="110" height="40" viewBox="0 0 110 40" fill="none" xmlns="http://www.w3.org/2000/svg">
<path d="M73.4036 35.3938C73.4036 35.3938 73.6446 32.8907 75.9122 33.2725C78.4209 33.6968 81.3972 34.0645 81.298 32.424C81.1988 30.6986 74.0272 30.8259 73.9847 26.2297C73.928 20.2334 84.331 23.1749 84.331 23.1749C84.331 23.1749 84.4019 25.6923 82.205 25.5508C80.5185 25.4377 77.3862 24.9144 77.3012 26.1731C77.202 27.757 84.8129 27.9833 84.6144 32.3391C84.3026 39.2547 73.4036 35.3938 73.4036 35.3938Z" fill="white"/>
<path d="M63.7801 30.9673C65.325 30.1894 66.2179 28.7894 66.2179 27.1347C66.2179 23.9669 63.8368 22.4254 60.6337 22.4254C56.7929 22.4254 54.9504 23.189 54.9504 23.189V35.0685C54.9504 36.8787 58.2669 36.2565 58.2669 36.2565V25.4376C58.9472 25.3245 59.4999 25.2538 60.2652 25.2538C61.7959 25.2538 62.8447 25.5791 62.8447 27.1206C62.8447 27.955 62.377 28.6055 61.0873 28.7611C59.4716 28.9449 60.1093 30.3167 60.5345 31.2218L62.4904 35.0685C63.5675 37.2323 66.6573 36.2565 66.6573 36.2565L63.8085 30.9531L63.7801 30.9673Z" fill="white"/>
<path d="M47.949 28.9591C46.971 28.9591 46.4466 28.9591 45.7663 28.9025V25.4518C46.4466 25.3387 46.9994 25.2679 47.7789 25.2679C49.3096 25.2679 50.3584 25.5932 50.3584 27.1347C50.3584 28.0822 49.7489 28.9591 47.949 28.9591ZM48.1332 22.4254C44.2923 22.4254 42.4499 23.189 42.4499 23.189V35.0826C42.4499 36.8929 45.7663 36.2706 45.7663 36.2706V31.7451C46.3899 31.7875 47.0419 31.8017 48.3033 31.8017C51.7332 31.8017 53.7174 29.7086 53.7174 27.1347C53.7174 23.9669 51.3363 22.4254 48.1332 22.4254Z" fill="white"/>
<path d="M90.0002 30.5855L91.3891 26.8943L92.693 30.5855H90.0002ZM93.2458 23.4012C92.5938 21.7749 89.8301 22.6375 89.8301 22.6375L84.8129 35.0968C84.1609 36.8505 87.8742 36.2706 87.8742 36.2706L88.8947 33.5553H93.7418L94.2804 35.0827C95.0174 36.9919 98.263 36.2706 98.263 36.2706L93.2458 23.4012V23.4012Z" fill="white"/>
<path d="M68.3864 22.6234V35.0544C68.3864 36.8646 71.7029 36.2423 71.7029 36.2423V23.8255C71.7029 22.0153 68.3864 22.6375 68.3864 22.6375V22.6234Z" fill="white"/>
<path d="M47.4954 12.936C45.4828 12.2147 41.9112 11.451 35.6326 10.7156L35.5334 10.6732L35.4484 10.6308C35.1791 10.5318 34.8956 10.4045 34.5696 10.3055C33.2799 9.83881 30.3461 9.1317 26.9871 8.79228C32.1319 7.87304 38.1129 7.87304 44.3773 7.90132H45.7238C46.1206 7.90132 46.2198 7.67505 46.2482 7.56191C46.3474 7.15178 45.823 6.84066 45.6671 6.7558C38.7648 2.9374 19.6455 0.038245 13.9905 9.57011C13.948 9.64082 13.7921 9.89538 12.9559 12.1298C12.8708 12.4127 12.7716 12.6955 12.6866 12.9784C12.5448 13.3744 12.4456 13.7138 12.3748 13.9966C12.1622 14.7744 12.0771 15.3543 12.0488 15.4957C12.0204 15.7078 11.9921 15.9058 11.9779 16.0331V16.0897C11.9354 16.2311 11.9212 16.3584 11.9071 16.4857L11.8787 16.6695V16.6978C11.8504 17.0372 11.822 17.3625 11.7937 17.6877L11.7653 17.7726C11.7653 17.9847 11.7512 18.1969 11.7653 18.4373C11.7653 18.6777 11.7937 18.904 11.822 19.102C11.9638 19.9222 12.3181 20.7 12.8283 21.4354C13.0267 21.69 13.211 21.9163 13.4377 22.1567C14.8125 23.6133 16.9243 24.674 19.2345 25.0558C19.5179 25.1124 19.8014 25.1407 20.0849 25.169C20.3683 25.1973 20.6234 25.2255 20.8786 25.2255H21.3179C21.5022 25.2114 21.6864 25.2255 21.8707 25.2114C21.899 25.2114 21.9132 25.2114 21.9274 25.2114C21.9699 25.2114 21.9982 25.1973 22.0266 25.1973H22.14C22.14 25.1973 22.2108 25.1973 22.2392 25.1973C22.5084 25.1973 22.7352 25.1548 22.9762 25.1124C23.2596 25.07 23.5431 25.0134 23.7982 24.9427C24.0533 24.8861 24.2801 24.8154 24.5068 24.7306C24.6486 24.6881 24.7903 24.6457 24.9179 24.5891C25.4139 24.4053 25.8391 24.2073 26.2218 23.981C26.3777 23.8962 26.5336 23.8113 26.6753 23.7123L26.7462 23.6558C26.7462 23.6558 26.8454 23.6133 26.8879 23.5709C27.0721 23.4578 27.2139 23.3446 27.3556 23.2174C27.554 23.0759 27.7383 22.9204 27.9084 22.7648C28.2202 22.4678 28.3761 22.1991 28.3761 21.9446C28.3761 21.8738 28.3477 21.8173 28.3335 21.7466C28.3194 21.69 28.291 21.6334 28.2485 21.5627C28.1209 21.3506 27.8517 21.1243 27.4548 20.9122C27.1714 20.7707 26.8312 20.6435 26.4485 20.502C26.817 20.4455 27.1714 20.4172 27.5399 20.403C27.965 20.3748 28.3902 20.3606 28.8012 20.3465C29.0422 20.3465 29.3682 20.3606 29.7367 20.403H29.8642C32.3303 19.6818 35.1649 19.201 38.3397 18.9605C43.3711 18.5646 47.0986 17.7302 48.8702 16.5988C48.9552 16.5422 49.0403 16.4715 49.1253 16.4149C49.7347 15.9482 50.0182 15.4957 49.9898 15.0007C49.9615 14.3926 49.5221 13.6996 47.4954 12.9642V12.936ZM13.7495 12.6955C13.707 12.5965 13.6645 12.4834 13.6362 12.342C14.359 10.4045 14.5574 10.0085 14.5999 9.92366C19.8581 1.07063 38.1412 3.6728 44.9726 7.19421H44.3773C37.0216 7.18007 30.1052 7.15178 24.3509 8.60843C24.3226 8.60843 24.2942 8.60843 24.2659 8.60843C23.3305 8.80642 22.3951 9.07513 21.488 9.38626C18.214 10.5035 15.507 12.3844 14.118 13.4451C14.0047 13.2754 13.8771 13.0067 13.7495 12.6814V12.6955ZM17.1085 16.3442L16.9952 16.2735C16.9101 16.217 16.8251 16.1604 16.7542 16.1038L16.6834 16.0472C16.6834 16.0472 16.5558 15.9624 16.4991 15.9058C16.3715 15.821 15.2661 14.9159 14.5291 14.039C15.8613 13.0208 18.54 11.1682 21.7289 10.0651C22.5935 9.7681 23.4864 9.51354 24.4218 9.31554H24.436C27.4406 9.3014 30.8422 9.69738 34.3429 10.9702C34.7256 11.1116 35.1082 11.253 35.4767 11.4086C36.9082 12.045 36.9365 12.3986 36.9365 12.3986C36.9365 12.3986 36.809 12.7804 35.0515 13.035C34.7114 13.0774 34.4421 13.0915 34.3854 13.1057C33.3508 13.1481 27.9225 14.3502 17.7888 16.7826C17.5763 16.6554 17.3495 16.5139 17.1085 16.3442V16.3442ZM48.7143 15.8068C48.6009 15.8775 48.5017 15.9624 48.3883 16.0331C46.7159 17.0655 43.0451 17.8574 38.2404 18.2251C35.094 18.4656 32.2311 18.9464 29.7367 19.6535C29.3682 19.6252 28.9997 19.6111 28.7729 19.6111C28.3619 19.6252 27.9367 19.6394 27.4973 19.6677C26.5761 19.7242 25.6548 19.8232 24.7478 19.9646C24.5352 19.8939 24.3084 19.8091 24.0675 19.7242C23.7698 19.6252 23.4439 19.5121 23.1037 19.3848C21.9699 18.9323 20.2975 18.2251 18.6534 17.2918C28.1635 15.029 33.4642 13.8552 34.4421 13.8128C34.513 13.7986 34.7822 13.7845 35.1507 13.7279C36.7665 13.5016 37.5601 13.1057 37.631 12.4975C37.6735 12.2006 37.546 11.9177 37.2342 11.6349C47.9915 13.0067 49.2529 14.435 49.2812 15.0007C49.2954 15.2411 49.0969 15.5098 48.7143 15.8068V15.8068Z" fill="white"/>
<path d="M32.2028 29.2561C31.65 30.1471 30.2894 30.2036 29.6658 30.2602C21.4596 31.038 16.57 27.9974 16.57 27.9974C13.1826 25.8902 12.559 23.882 12.4315 23.4154C12.3039 22.9345 12.2472 22.5244 12.233 22.2557V22.1567C12.1905 21.9163 12.1622 21.6759 12.1338 21.4496C12.2047 21.5486 12.2614 21.6476 12.3322 21.7324C12.5165 22.0011 12.7007 22.2274 12.97 22.5385C14.444 24.08 16.6692 25.1831 19.0644 25.5791C19.4187 25.6498 19.7305 25.6781 19.9998 25.7064H20.1274C20.3825 25.7347 20.6234 25.763 20.8785 25.763H21.0203C21.2896 25.8054 21.7148 25.8761 22.2533 25.961C28.8154 26.9651 31.9335 26.6256 32.4153 27.9833C32.6138 28.5631 32.2594 29.1712 32.2169 29.242L32.2028 29.2561Z" fill="white"/>
<path d="M22.1541 33.3149C21.5872 33.1735 21.0061 32.9331 20.2549 32.6361C20.1699 32.6078 18.7667 32.028 17.6046 31.3633C17.2644 31.1653 16.9526 30.9673 16.9384 30.9531C16.6833 30.7976 16.3999 30.5855 16.1306 30.3875C15.6912 30.0339 15.3936 29.7511 15.2944 29.6521C14.9967 29.3692 14.4865 28.8884 14.0188 28.1813C13.707 27.6863 13.4944 27.2055 13.3243 26.7529C13.1543 26.2862 12.9842 25.8054 12.7999 25.3387C12.9983 25.6215 13.3102 26.0175 13.7212 26.4559C15.6062 28.4924 17.7746 29.3834 18.5683 29.6662C21.9557 30.9107 27.2138 31.0663 28.0784 30.9249C28.1776 30.9107 28.5603 30.84 28.7304 31.038C28.8437 31.1794 28.8012 31.3774 28.787 31.4481C28.6311 32.1552 25.3997 34.1352 22.1541 33.3149V33.3149Z" fill="white"/>
<path d="M29.2548 35.3797C29.2548 35.5211 29.1555 35.6908 29.0138 35.8605C28.6311 36.3272 27.8091 36.6949 27.1713 36.7939C26.817 36.8505 26.5052 36.8788 26.2359 36.8788C25.3288 36.8788 24.9037 36.5676 24.9037 36.1858C24.9037 36.0868 24.9462 35.9737 25.0029 35.8605C25.2863 35.3514 26.2217 34.8423 27.6107 34.8423C27.8942 34.8423 28.206 34.8564 28.5178 34.913C29.0705 35.012 29.2548 35.1817 29.2548 35.3797Z" fill="white"/>
<path d="M14.3023 13.742C14.3023 13.742 14.2173 13.643 14.1181 13.4592C14.0756 13.4875 14.0472 13.5157 14.0189 13.544L14.4582 14.0956C14.4582 14.0956 14.5007 14.0673 14.5291 14.039C14.444 13.94 14.3732 13.841 14.3023 13.742Z" fill="white"/>
<path d="M14.5291 14.039C14.5291 14.039 14.4866 14.0814 14.4582 14.0956L14.0189 13.544C14.0189 13.544 14.0756 13.4875 14.1181 13.4592C14.2173 13.643 14.3023 13.742 14.3023 13.742C14.3732 13.841 14.444 13.94 14.5291 14.039Z" fill="white"/>
<path d="M23.3447 34.5028C23.3447 34.6726 23.1179 34.8281 22.9053 34.9271C22.6644 35.0403 22.3526 35.1251 21.4738 35.0544C21.4738 35.0544 20.1274 34.9413 19.277 34.5453C19.192 34.5028 19.0928 34.4604 19.0928 34.4604C18.9794 34.4039 18.866 34.3473 18.7385 34.2766C18.4975 34.1493 18.2282 33.9937 17.9164 33.7816C17.7463 33.6685 17.5904 33.5412 17.3495 33.3715C17.2786 33.3008 17.0094 33.0745 16.6975 32.7916C16.159 32.2684 15.8047 31.8017 15.5779 31.533C15.2944 31.2077 14.9968 30.7693 14.6566 30.1612C14.3874 29.6803 14.2031 29.2419 14.0897 28.9025C14.359 29.2702 14.77 29.7793 15.3228 30.3167C15.8897 30.8683 16.7542 31.5754 18.1432 32.3108C21.0061 33.8099 23.373 33.9372 23.3447 34.5028V34.5028Z" fill="white"/>
<path d="M25.4989 27.6439L25.2438 26.9792C27.8517 25.961 30.502 25.2114 33.0957 24.7306C33.4075 24.674 33.6484 24.6457 34.1303 24.5467C36.1995 24.1649 37.8861 23.8396 37.9145 23.3588C37.9145 23.3022 37.9003 23.2174 37.7869 23.1042C37.5602 22.8921 37.2342 22.5951 36.7948 22.3123C36.398 22.0436 35.9444 21.8173 35.1933 21.5344C34.8531 21.4072 33.946 21.0819 32.2736 20.7566C31.6217 20.6293 30.7713 20.4879 29.7508 20.3748C29.7508 20.1344 29.7792 19.9081 29.7792 19.6677C30.8563 19.7667 31.7492 19.9222 32.4295 20.0636C33.7901 20.3465 34.7681 20.6718 35.3775 20.8839C36.398 21.2516 36.8657 21.5203 37.22 21.7466C37.7161 22.0718 38.0704 22.3971 38.3113 22.6517C38.3822 22.7365 38.453 22.8355 38.5097 22.9204C38.609 23.0618 38.6798 23.2598 38.6798 23.4578C38.6798 24.4336 37.0074 24.7871 34.2437 25.2538C33.8894 25.3104 33.5492 25.367 33.2232 25.4377C30.6721 25.9044 28.0784 26.6539 25.4989 27.6439V27.6439Z" fill="white"/>
</svg>
