<svg width="110" height="40" viewBox="0 0 110 40" fill="none" xmlns="http://www.w3.org/2000/svg">
<path d="M15.6157 20.7865C15.1787 20.1655 14.5346 19.7055 13.6836 19.4525C13.6606 19.5445 13.6146 19.6135 13.5456 19.6365L13.0165 19.8665C13.0855 19.7055 13.1085 19.5215 13.1085 19.3145C13.1085 19.1764 13.0855 19.0384 13.0395 18.9004L13.5456 19.1534C13.6146 19.1994 13.6606 19.2685 13.6836 19.3605C13.8216 19.2915 13.9596 19.1994 14.0746 19.1304C14.1206 19.1074 14.1436 19.0844 14.1666 19.0614C14.1896 19.0384 14.2126 19.0384 14.2356 19.0154C15.1327 18.3254 15.7307 17.2443 15.7307 16.0253C15.7307 13.9551 14.0746 12.276 12.0505 12.276C12.0275 12.276 11.9815 12.276 11.9585 12.276C11.6134 12.253 11.2684 12.23 10.9004 12.23H4V27.4109H11.1074C11.7745 27.4109 12.3955 27.3189 13.0395 27.1579C13.6606 26.9969 14.2126 26.7439 14.6956 26.3989C15.1787 26.0539 15.5697 25.6168 15.8687 25.0648C16.1677 24.5358 16.3057 23.8917 16.3057 23.1327C16.2827 22.2356 16.0527 21.4536 15.6157 20.7865ZM5.84011 20.7635C5.05806 20.7635 4.43703 20.1425 4.43703 19.3605C4.43703 18.5784 5.05806 17.9574 5.84011 17.9574C6.62215 17.9574 7.24319 18.5784 7.24319 19.3605C7.24319 20.1195 6.62215 20.7635 5.84011 20.7635ZM7.65721 15.2202C7.65721 15.0132 7.70322 14.8062 7.79522 14.6222C8.18624 13.7021 9.26731 13.2881 10.1874 13.7021C11.1074 14.0932 11.5444 15.1512 11.1534 16.0713C11.0614 16.2553 10.9464 16.4163 10.8314 16.5773L8.18624 19.0384C7.97923 19.2225 7.65721 19.0844 7.65721 18.8084V15.2202ZM10.6704 19.3375C10.6704 19.9815 10.3714 20.5105 10.0264 20.5105C9.95735 20.5105 9.86534 20.4875 9.79634 20.4415C9.49732 20.1655 9.31331 19.7515 9.33631 19.2915C9.33631 18.8774 9.52032 18.4864 9.79634 18.2334C9.86534 18.1874 9.95735 18.1644 10.0264 18.1644C10.3714 18.1644 10.6704 18.6934 10.6704 19.3375ZM10.3944 25.5018C9.40532 25.9158 8.27825 25.4788 7.86423 24.5358C7.77222 24.3287 7.72622 24.1217 7.72622 23.8917V20.0965C7.72622 19.7975 8.07124 19.6595 8.27825 19.8435L11.0614 22.4656C11.1994 22.6267 11.3374 22.7877 11.4064 22.9947C11.8435 23.9607 11.3834 25.0878 10.3944 25.5018ZM11.3834 20.5795L11.0154 20.7405C10.9004 20.7865 10.7624 20.8095 10.6244 20.7865C10.5784 20.7865 10.5324 20.7635 10.4634 20.7635C10.8544 20.5335 11.1074 19.9585 11.1074 19.3145C11.1074 18.6704 10.8314 18.0954 10.4404 17.8654C10.5094 17.8424 10.6014 17.8424 10.6704 17.8424C10.8084 17.8424 10.9464 17.8884 11.0614 17.9344L11.3604 18.0954C11.5674 18.4174 11.6824 18.8544 11.6824 19.3375C11.7285 19.8205 11.5904 20.2575 11.3834 20.5795ZM12.6025 20.0505L11.9815 20.3265C12.0965 20.0275 12.1885 19.7055 12.1885 19.3375C12.1885 18.9924 12.1195 18.6704 12.0275 18.3944L12.6485 18.7164C12.6945 18.9004 12.7175 19.1074 12.7175 19.3375C12.6945 19.5905 12.6715 19.8435 12.6025 20.0505Z" fill="white"/>
<path d="M33.5567 12.414C31.0956 12.414 28.9565 13.6331 27.5764 15.4272C26.3573 13.6331 24.4252 12.414 22.0101 12.414C19.8249 12.414 17.8928 13.3571 16.5127 14.8291C16.6047 15.1972 16.6507 15.5652 16.6507 15.9562C16.6507 17.1983 16.1677 18.3713 15.3397 19.2224C15.7537 19.5214 16.0987 19.8664 16.3747 20.2575C16.9268 21.0625 17.2028 22.0286 17.2028 23.1326C17.2028 23.9837 17.0418 24.7427 16.6967 25.4098C18.0538 26.7208 19.9169 27.5259 21.964 27.5259C23.9882 27.5259 25.5753 26.7668 26.8863 25.6168C26.1273 24.6507 25.5523 23.5237 25.2072 22.3046C24.3332 23.2936 23.0911 23.9147 21.964 23.9147C20.3079 23.9147 18.8819 22.9256 18.3068 21.4305H26.1043C26.7943 24.9497 29.8765 27.5259 33.5337 27.5259C36.2709 27.5259 38.157 26.1458 39.7211 24.3287L36.6389 22.4656C35.7649 23.4316 34.6838 23.9607 33.5337 23.9607C31.8776 23.9607 30.4515 22.9716 29.8765 21.4765H40.4341C41.1472 17.0373 38.272 12.414 33.5567 12.414ZM18.3068 18.7394C18.3068 17.3363 19.9859 16.0022 22.0101 16.0022C23.6431 16.0022 25.3452 17.2443 25.3452 18.7394H18.3068ZM29.8535 18.7394C29.8535 17.3363 31.5326 16.0022 33.5567 16.0022C35.1898 16.0022 36.8919 17.2443 36.8919 18.7394H29.8535Z" fill="white"/>
<path d="M69.8298 20.4645H64.7005C64.6085 20.4645 64.5395 20.5335 64.5395 20.6025V20.6945C64.5395 20.7865 64.6085 20.8555 64.7005 20.8555H69.5998V25.9158C69.1628 26.2839 67.4147 27.4109 64.5165 27.4109C60.3993 27.4109 57.0641 24.1677 57.0641 20.0505C57.0641 15.9333 60.3763 12.6441 64.5165 12.6441C66.5867 12.6441 68.1047 13.3571 69.5078 14.5532C69.5538 14.5992 69.6228 14.6222 69.6918 14.5532L69.8068 14.4152C69.8528 14.3462 69.8298 14.2772 69.7838 14.2312C68.3118 12.9891 66.7477 12.23 64.5395 12.23C60.1923 12.23 56.6961 15.6802 56.6961 20.0275C56.6961 24.3748 60.1923 27.779 64.5395 27.779C67.9437 27.779 69.8528 26.2839 69.9908 26.0539V20.6025C69.9678 20.5335 69.8988 20.4645 69.8298 20.4645Z" fill="white"/>
<path d="M42.8263 12.46H38.502C38.433 12.46 38.364 12.529 38.364 12.621V13.4951C38.479 13.6101 38.617 13.7251 38.732 13.8401V12.851H42.8033C46.8055 12.851 50.0487 16.0482 50.0487 20.0045C50.0487 24.0067 46.7825 27.1809 42.8033 27.1809H38.732V26.1458C38.617 26.2378 38.502 26.3528 38.364 26.4448V27.4339C38.364 27.5259 38.433 27.5949 38.502 27.5949H42.8263C47.0355 27.5949 50.4397 24.2367 50.4397 20.0275C50.4397 15.8412 47.0355 12.46 42.8263 12.46Z" fill="white"/>
<path d="M53.6139 12.46H53.5219C53.4299 12.46 53.3609 12.529 53.3609 12.621V27.4339C53.3609 27.5259 53.4299 27.5949 53.5219 27.5949H53.6139C53.7059 27.5949 53.7749 27.5259 53.7749 27.4339V12.621C53.7749 12.529 53.7059 12.46 53.6139 12.46Z" fill="white"/>
<path d="M73.4871 12.46H73.395C73.303 12.46 73.234 12.529 73.234 12.621V27.4339C73.234 27.5259 73.303 27.5949 73.395 27.5949H73.4871C73.5791 27.5949 73.6481 27.5259 73.6481 27.4339V12.621C73.6481 12.529 73.5791 12.46 73.4871 12.46Z" fill="white"/>
<path d="M106.839 27.1809H99.3175V12.621C99.3175 12.529 99.2485 12.46 99.1795 12.46H99.0875C98.9955 12.46 98.9265 12.529 98.9265 12.621V27.4339C98.9265 27.5259 98.9955 27.5949 99.0875 27.5949H106.839C106.931 27.5949 107 27.5259 107 27.4339V27.3419C106.977 27.2499 106.908 27.1809 106.839 27.1809Z" fill="white"/>
<path d="M86.2068 22.6726L90.5081 12.782L94.6943 22.6726H86.2068ZM90.5081 12H90.4621C90.4161 12 90.3701 12.046 90.3471 12.092L83.6997 27.4109C83.6767 27.4799 83.6997 27.5259 83.7687 27.5489L83.9527 27.6179C84.0217 27.6409 84.0447 27.5949 84.0677 27.5489L85.9998 23.0406H94.8323L96.7644 27.5489C96.7874 27.5949 96.8104 27.6409 96.8794 27.6179L97.0634 27.5489C97.1325 27.5259 97.1555 27.4799 97.1324 27.4109L90.6231 12.092C90.6001 12.046 90.5541 12 90.5081 12Z" fill="white"/>
<path d="M85.0797 12.69V12.621C85.0797 12.529 85.0107 12.46 84.9187 12.46H75.5112C75.4192 12.46 75.3502 12.529 75.3502 12.621V12.713C75.3502 12.805 75.4192 12.874 75.5112 12.874H79.9964V27.4339C79.9964 27.5259 80.0654 27.5949 80.1574 27.5949H80.2494C80.3415 27.5949 80.4105 27.5259 80.4105 27.4339V12.851H84.9417C85.0107 12.851 85.0797 12.782 85.0797 12.69Z" fill="white"/>
</svg>
